<?xml version="1.0" standalone="no"?>
<!DOCTYPE svg PUBLIC "-//W3C//DTD SVG 20010904//EN"
 "http://www.w3.org/TR/2001/REC-SVG-20010904/DTD/svg10.dtd">
<svg version="1.0" xmlns="http://www.w3.org/2000/svg"
 width="1125.000000pt" height="1126.000000pt" viewBox="0 0 1125.000000 1126.000000"
 preserveAspectRatio="xMidYMid meet">

<g transform="translate(0.000000,1126.000000) scale(0.100000,-0.100000)"
fill="#000000" stroke="none">
<path d="M7114 6705 c-202 -30 -376 -94 -494 -183 -121 -91 -230 -263 -270
-427 -24 -99 -40 -245 -40 -365 l0 -90 -150 0 -150 0 0 -280 0 -280 150 0 150
0 0 -425 0 -425 345 0 345 0 0 425 0 425 238 2 237 3 2 278 2 277 -240 0 -239
0 0 64 c0 189 46 325 128 377 57 36 95 47 220 62 l97 12 0 280 0 280 -120 2
c-66 0 -161 -5 -211 -12z"/>
<path d="M8505 6577 c-104 -68 -256 -165 -337 -217 l-148 -95 0 -312 0 -313
-160 0 -160 0 0 -280 0 -280 160 0 160 0 0 -425 0 -425 345 0 345 0 0 425 0
425 300 0 300 0 0 280 0 280 -300 0 -300 0 0 530 c0 292 -3 530 -7 530 -5 0
-93 -56 -198 -123z"/>
<path d="M1790 5385 l0 -1155 345 0 345 0 0 1155 0 1155 -345 0 -345 0 0
-1155z m369 847 c-10 -17 -10 -23 0 -36 19 -22 -4 -21 -49 4 l-35 18 45 20
c25 11 46 18 48 17 2 -2 -2 -12 -9 -23z m-14 -132 c-16 -16 -27 -30 -24 -31
60 -10 62 -19 4 -19 l-49 0 27 28 c27 28 36 49 17 37 -5 -3 -18 -1 -27 4 -14
8 -7 10 31 11 l50 0 -29 -30z m25 -110 c0 -5 -4 -10 -10 -10 -14 0 -12 -38 3
-43 6 -2 10 -7 7 -9 -3 -3 -25 3 -50 14 l-45 20 35 18 c39 22 60 25 60 10z m0
-120 c0 -5 -20 -10 -45 -10 -25 0 -45 5 -45 10 0 6 20 10 45 10 25 0 45 -4 45
-10z m-39 -80 c21 0 39 -4 39 -10 0 -5 -18 -10 -39 -10 -22 0 -42 -5 -44 -12
-3 -7 -5 5 -5 27 0 22 2 32 5 23 3 -13 15 -18 44 -18z m32 -87 c-7 -3 -13 -13
-13 -23 0 -10 6 -20 13 -23 6 -2 9 -7 6 -11 -6 -6 -89 25 -89 34 0 8 84 38 90
32 3 -2 -1 -7 -7 -9z m-34 -115 c16 2 32 -1 36 -7 4 -7 -8 -11 -34 -11 -29 0
-41 -5 -44 -17 -3 -10 -5 0 -6 22 0 29 2 36 9 25 6 -9 21 -14 39 -12z m29
-177 c-10 -16 -10 -23 0 -33 6 -6 12 -15 12 -20 0 -9 -75 24 -79 36 -2 8 70
46 77 41 2 -2 -2 -12 -10 -24z m-11 -129 c-34 -35 -34 -40 1 -45 16 -2 7 -5
-22 -6 l-50 -1 29 30 29 30 -27 0 c-15 0 -27 5 -27 10 0 6 21 10 47 10 l47 0
-27 -28z m6 -119 c-13 -2 -35 -2 -50 0 -16 2 -5 4 22 4 28 0 40 -2 28 -4z
m-59 -77 c-7 -17 22 -40 41 -32 8 3 15 17 15 31 0 14 5 25 11 25 16 0 6 -52
-12 -63 -9 -5 -28 -7 -42 -3 -22 5 -27 12 -27 37 0 17 4 28 10 24 5 -3 7 -12
4 -19z m76 -96 c0 -5 -4 -10 -10 -10 -5 0 -10 -9 -10 -20 0 -11 5 -20 10 -20
6 0 10 -4 10 -10 0 -5 -20 -2 -45 8 -25 9 -45 19 -45 23 0 6 65 36 83 38 4 1
7 -3 7 -9z m-3 -123 c3 -4 -3 -7 -15 -7 -15 0 -22 -6 -22 -20 0 -11 6 -20 14
-20 8 0 18 -4 21 -10 4 -6 -12 -10 -39 -10 -25 0 -46 5 -46 10 0 6 9 10 20 10
13 0 20 7 20 20 0 14 -7 20 -22 20 -14 0 -18 3 -11 8 14 9 71 8 80 -1z m-40
-205 l39 -17 -38 -19 c-42 -20 -63 -15 -32 8 18 14 18 15 2 21 -10 4 -18 11
-18 16 0 12 2 12 47 -9z m41 -125 c3 -26 2 -27 -43 -27 -42 0 -46 2 -43 22 2
14 13 25 28 29 40 12 55 6 58 -24z"/>
<path d="M2096 4541 c-4 -5 -2 -12 3 -15 5 -4 12 -2 15 3 4 5 2 12 -3 15 -5 4
-12 2 -15 -3z"/>
<path d="M2136 4541 c-4 -5 -2 -12 3 -15 5 -4 12 -2 15 3 4 5 2 12 -3 15 -5 4
-12 2 -15 -3z"/>
<path d="M3026 6504 c-8 -20 -8 -502 0 -531 6 -20 13 -23 55 -23 46 0 49 2 49
25 0 14 2 25 5 25 2 0 21 -11 41 -25 29 -20 49 -25 99 -25 53 0 68 4 104 31
57 41 85 103 84 189 0 105 -50 179 -136 205 -67 20 -125 7 -174 -38 l-23 -20
0 101 0 102 -49 0 c-35 0 -51 -4 -55 -16z m296 -253 c54 -60 42 -150 -24 -191
-43 -26 -67 -25 -109 3 -60 40 -73 124 -27 182 42 54 114 57 160 6z"/>
<path d="M5050 6430 c0 -47 -2 -50 -25 -50 -23 0 -25 -4 -25 -45 0 -41 2 -45
24 -45 24 0 24 -1 28 -134 3 -126 5 -137 28 -160 27 -30 76 -46 138 -46 l42 0
0 45 c0 41 -2 45 -24 45 -14 0 -36 4 -50 10 -26 9 -26 10 -26 125 l0 115 50 0
50 0 0 45 0 45 -50 0 -50 0 0 50 0 50 -55 0 -55 0 0 -50z"/>
<path d="M3675 6379 c-51 -12 -95 -43 -126 -87 -34 -50 -40 -171 -11 -228 40
-77 102 -114 192 -114 89 0 145 32 181 103 l19 37 -58 0 c-50 0 -62 -4 -80
-25 -31 -36 -99 -35 -136 1 -14 15 -26 35 -26 45 0 17 12 19 153 21 l152 3 -1
45 c-1 66 -11 95 -46 135 -49 57 -134 82 -213 64z m115 -108 c14 -10 26 -28
28 -40 3 -20 0 -21 -92 -21 -53 0 -96 3 -96 6 0 13 24 50 39 59 44 27 78 26
121 -4z"/>
<path d="M4120 6374 c-94 -33 -135 -104 -129 -226 4 -62 9 -79 34 -115 41 -58
89 -83 157 -83 42 0 64 6 92 25 20 14 39 25 41 25 3 0 5 -11 5 -25 0 -24 3
-25 55 -25 l55 0 0 215 0 215 -55 0 c-53 0 -55 -1 -55 -26 0 -26 -1 -26 -22
-10 -57 41 -118 51 -178 30z m139 -99 c54 -27 77 -119 45 -175 -67 -113 -215
-53 -202 82 9 88 82 132 157 93z"/>
<path d="M4530 6224 c0 -141 2 -160 21 -194 42 -75 146 -102 228 -60 39 19 39
19 44 0 4 -17 14 -20 56 -20 l51 0 0 215 0 215 -55 0 -55 0 0 -135 c0 -77 -5
-144 -11 -158 -27 -59 -128 -61 -158 -3 -6 11 -12 82 -13 156 l-3 135 -52 3
-53 3 0 -157z"/>
<path d="M5294 6356 c3 -13 40 -106 82 -207 l76 -183 -42 -95 c-23 -53 -44
-102 -47 -108 -4 -10 11 -13 53 -13 l59 0 79 188 c44 103 103 244 132 315 l53
127 -58 0 -58 0 -54 -145 c-29 -79 -56 -139 -60 -133 -4 6 -29 71 -55 145
l-49 133 -59 0 c-57 0 -58 -1 -52 -24z"/>
<path d="M4125 5666 c-298 -50 -541 -167 -734 -351 -263 -252 -411 -599 -411
-966 l0 -119 344 0 343 0 6 133 c9 242 65 385 207 528 70 72 100 93 170 127
113 53 174 67 305 66 123 -1 205 -19 294 -64 246 -124 374 -341 388 -657 l6
-133 348 0 349 0 0 109 c0 195 -58 447 -141 613 -59 119 -142 232 -244 334
-189 189 -389 297 -662 360 -100 23 -146 27 -303 30 -123 2 -212 -1 -265 -10z"/>
</g>
</svg>
